<?xml version="1.0" encoding="utf-8" standalone="no"?>
<!DOCTYPE svg PUBLIC "-//W3C//DTD SVG 1.1//EN"
  "http://www.w3.org/Graphics/SVG/1.1/DTD/svg11.dtd">
<svg xmlns:xlink="http://www.w3.org/1999/xlink" width="864pt" height="576pt" viewBox="0 0 864 576" xmlns="http://www.w3.org/2000/svg" version="1.1">
 <metadata>
  <rdf:RDF xmlns:dc="http://purl.org/dc/elements/1.1/" xmlns:cc="http://creativecommons.org/ns#" xmlns:rdf="http://www.w3.org/1999/02/22-rdf-syntax-ns#">
   <cc:Work>
    <dc:type rdf:resource="http://purl.org/dc/dcmitype/StillImage"/>
    <dc:date>2025-05-14T01:50:18.222877</dc:date>
    <dc:format>image/svg+xml</dc:format>
    <dc:creator>
     <cc:Agent>
      <dc:title>Matplotlib v3.10.0, https://matplotlib.org/</dc:title>
     </cc:Agent>
    </dc:creator>
   </cc:Work>
  </rdf:RDF>
 </metadata>
 <defs>
  <style type="text/css">*{stroke-linejoin: round; stroke-linecap: butt}</style>
 </defs>
 <g id="figure_1">
  <g id="patch_1">
   <path d="M 0 576 
L 864 576 
L 864 0 
L 0 0 
z
" style="fill: #ffffff"/>
  </g>
  <g id="axes_1">
   <g id="patch_2">
    <path d="M 84.44 510.28 
L 682.51 510.28 
L 682.51 36.24 
L 84.44 36.24 
z
" style="fill: #ffffff"/>
   </g>
   <g id="patch_3">
    <path d="M 111.625 510.28 
L 186.618103 510.28 
L 186.618103 504.112251 
L 111.625 504.112251 
z
" clip-path="url(#p8408b2fc88)" style="fill: #28ae80"/>
   </g>
   <g id="patch_4">
    <path d="M 111.625 504.112251 
L 186.618103 504.112251 
L 186.618103 411.913419 
L 111.625 411.913419 
z
" clip-path="url(#p8408b2fc88)" style="fill: #addc30"/>
   </g>
   <g id="patch_5">
    <path d="M 111.625 411.913419 
L 186.618103 411.913419 
L 186.618103 410.270828 
L 111.625 410.270828 
z
" clip-path="url(#p8408b2fc88)" style="fill: #fde725"/>
   </g>
   <g id="patch_6">
    <path d="M 111.625 410.270828 
L 186.618103 410.270828 
L 186.618103 408.185302 
L 111.625 408.185302 
z
" clip-path="url(#p8408b2fc88)" style="fill: #2c728e"/>
   </g>
   <g id="patch_7">
    <path d="M 111.625 408.185302 
L 186.618103 408.185302 
L 186.618103 399.107771 
L 111.625 399.107771 
z
" clip-path="url(#p8408b2fc88)" style="fill: #5ec962"/>
   </g>
   <g id="patch_8">
    <path d="M 111.625 399.107771 
L 186.618103 399.107771 
L 186.618103 384.140944 
L 111.625 384.140944 
z
" clip-path="url(#p8408b2fc88)" style="fill: #472d7b"/>
   </g>
   <g id="patch_9">
    <path d="M 111.625 384.140944 
L 186.618103 384.140944 
L 186.618103 384.140944 
L 111.625 384.140944 
z
" clip-path="url(#p8408b2fc88)" style="fill: #3b528b"/>
   </g>
   <g id="patch_10">
    <path d="M 111.625 384.140944 
L 186.618103 384.140944 
L 186.618103 50.762185 
L 111.625 50.762185 
z
" clip-path="url(#p8408b2fc88)" style="fill: #21918c"/>
   </g>
   <g id="patch_11">
    <path d="M 111.625 50.762185 
L 186.618103 50.762185 
L 186.618103 36.24 
L 111.625 36.24 
z
" clip-path="url(#p8408b2fc88)" style="fill: #440154"/>
   </g>
   <g id="patch_12">
    <path d="M 205.366379 510.28 
L 280.359483 510.28 
L 280.359483 510.28 
L 205.366379 510.28 
z
" clip-path="url(#p8408b2fc88)" style="fill: #2c728e"/>
   </g>
   <g id="patch_13">
    <path d="M 205.366379 510.28 
L 280.359483 510.28 
L 280.359483 422.795886 
L 205.366379 422.795886 
z
" clip-path="url(#p8408b2fc88)" style="fill: #addc30"/>
   </g>
   <g id="patch_14">
    <path d="M 205.366379 422.795886 
L 280.359483 422.795886 
L 280.359483 421.259454 
L 205.366379 421.259454 
z
" clip-path="url(#p8408b2fc88)" style="fill: #5ec962"/>
   </g>
   <g id="patch_15">
    <path d="M 205.366379 421.259454 
L 280.359483 421.259454 
L 280.359483 420.392809 
L 205.366379 420.392809 
z
" clip-path="url(#p8408b2fc88)" style="fill: #fde725"/>
   </g>
   <g id="patch_16">
    <path d="M 205.366379 420.392809 
L 280.359483 420.392809 
L 280.359483 413.748224 
L 205.366379 413.748224 
z
" clip-path="url(#p8408b2fc88)" style="fill: #440154"/>
   </g>
   <g id="patch_17">
    <path d="M 205.366379 413.748224 
L 280.359483 413.748224 
L 280.359483 393.609079 
L 205.366379 393.609079 
z
" clip-path="url(#p8408b2fc88)" style="fill: #3b528b"/>
   </g>
   <g id="patch_18">
    <path d="M 205.366379 393.609079 
L 280.359483 393.609079 
L 280.359483 376.435037 
L 205.366379 376.435037 
z
" clip-path="url(#p8408b2fc88)" style="fill: #28ae80"/>
   </g>
   <g id="patch_19">
    <path d="M 205.366379 376.435037 
L 280.359483 376.435037 
L 280.359483 373.204994 
L 205.366379 373.204994 
z
" clip-path="url(#p8408b2fc88)" style="fill: #472d7b"/>
   </g>
   <g id="patch_20">
    <path d="M 205.366379 373.204994 
L 280.359483 373.204994 
L 280.359483 36.24 
L 205.366379 36.24 
z
" clip-path="url(#p8408b2fc88)" style="fill: #21918c"/>
   </g>
   <g id="patch_21">
    <path d="M 299.107759 510.28 
L 374.100862 510.28 
L 374.100862 502.621653 
L 299.107759 502.621653 
z
" clip-path="url(#p8408b2fc88)" style="fill: #472d7b"/>
   </g>
   <g id="patch_22">
    <path d="M 299.107759 502.621653 
L 374.100862 502.621653 
L 374.100862 301.955125 
L 299.107759 301.955125 
z
" clip-path="url(#p8408b2fc88)" style="fill: #21918c"/>
   </g>
   <g id="patch_23">
    <path d="M 299.107759 301.955125 
L 374.100862 301.955125 
L 374.100862 298.938539 
L 299.107759 298.938539 
z
" clip-path="url(#p8408b2fc88)" style="fill: #28ae80"/>
   </g>
   <g id="patch_24">
    <path d="M 299.107759 298.938539 
L 374.100862 298.938539 
L 374.100862 286.999156 
L 299.107759 286.999156 
z
" clip-path="url(#p8408b2fc88)" style="fill: #2c728e"/>
   </g>
   <g id="patch_25">
    <path d="M 299.107759 286.999156 
L 374.100862 286.999156 
L 374.100862 137.29284 
L 299.107759 137.29284 
z
" clip-path="url(#p8408b2fc88)" style="fill: #addc30"/>
   </g>
   <g id="patch_26">
    <path d="M 299.107759 137.29284 
L 374.100862 137.29284 
L 374.100862 132.231721 
L 299.107759 132.231721 
z
" clip-path="url(#p8408b2fc88)" style="fill: #fde725"/>
   </g>
   <g id="patch_27">
    <path d="M 299.107759 132.231721 
L 374.100862 132.231721 
L 374.100862 132.231721 
L 299.107759 132.231721 
z
" clip-path="url(#p8408b2fc88)" style="fill: #440154"/>
   </g>
   <g id="patch_28">
    <path d="M 299.107759 132.231721 
L 374.100862 132.231721 
L 374.100862 40.999122 
L 299.107759 40.999122 
z
" clip-path="url(#p8408b2fc88)" style="fill: #3b528b"/>
   </g>
   <g id="patch_29">
    <path d="M 299.107759 40.999122 
L 374.100862 40.999122 
L 374.100862 36.24 
L 299.107759 36.24 
z
" clip-path="url(#p8408b2fc88)" style="fill: #5ec962"/>
   </g>
   <g id="patch_30">
    <path d="M 392.849138 510.28 
L 467.842241 510.28 
L 467.842241 428.93542 
L 392.849138 428.93542 
z
" clip-path="url(#p8408b2fc88)" style="fill: #addc30"/>
   </g>
   <g id="patch_31">
    <path d="M 392.849138 428.93542 
L 467.842241 428.93542 
L 467.842241 404.153321 
L 392.849138 404.153321 
z
" clip-path="url(#p8408b2fc88)" style="fill: #472d7b"/>
   </g>
   <g id="patch_32">
    <path d="M 392.849138 404.153321 
L 467.842241 404.153321 
L 467.842241 382.963582 
L 392.849138 382.963582 
z
" clip-path="url(#p8408b2fc88)" style="fill: #440154"/>
   </g>
   <g id="patch_33">
    <path d="M 392.849138 382.963582 
L 467.842241 382.963582 
L 467.842241 369.782059 
L 392.849138 369.782059 
z
" clip-path="url(#p8408b2fc88)" style="fill: #2c728e"/>
   </g>
   <g id="patch_34">
    <path d="M 392.849138 369.782059 
L 467.842241 369.782059 
L 467.842241 369.782059 
L 392.849138 369.782059 
z
" clip-path="url(#p8408b2fc88)" style="fill: #3b528b"/>
   </g>
   <g id="patch_35">
    <path d="M 392.849138 369.782059 
L 467.842241 369.782059 
L 467.842241 362.235676 
L 392.849138 362.235676 
z
" clip-path="url(#p8408b2fc88)" style="fill: #5ec962"/>
   </g>
   <g id="patch_36">
    <path d="M 392.849138 362.235676 
L 467.842241 362.235676 
L 467.842241 358.631047 
L 392.849138 358.631047 
z
" clip-path="url(#p8408b2fc88)" style="fill: #28ae80"/>
   </g>
   <g id="patch_37">
    <path d="M 392.849138 358.631047 
L 467.842241 358.631047 
L 467.842241 36.681291 
L 392.849138 36.681291 
z
" clip-path="url(#p8408b2fc88)" style="fill: #21918c"/>
   </g>
   <g id="patch_38">
    <path d="M 392.849138 36.681291 
L 467.842241 36.681291 
L 467.842241 36.24 
L 392.849138 36.24 
z
" clip-path="url(#p8408b2fc88)" style="fill: #fde725"/>
   </g>
   <g id="patch_39">
    <path d="M 486.590517 510.28 
L 561.583621 510.28 
L 561.583621 476.346748 
L 486.590517 476.346748 
z
" clip-path="url(#p8408b2fc88)" style="fill: #472d7b"/>
   </g>
   <g id="patch_40">
    <path d="M 486.590517 476.346748 
L 561.583621 476.346748 
L 561.583621 476.346748 
L 486.590517 476.346748 
z
" clip-path="url(#p8408b2fc88)" style="fill: #5ec962"/>
   </g>
   <g id="patch_41">
    <path d="M 486.590517 476.346748 
L 561.583621 476.346748 
L 561.583621 162.317593 
L 486.590517 162.317593 
z
" clip-path="url(#p8408b2fc88)" style="fill: #21918c"/>
   </g>
   <g id="patch_42">
    <path d="M 486.590517 162.317593 
L 561.583621 162.317593 
L 561.583621 138.246571 
L 486.590517 138.246571 
z
" clip-path="url(#p8408b2fc88)" style="fill: #fde725"/>
   </g>
   <g id="patch_43">
    <path d="M 486.590517 138.246571 
L 561.583621 138.246571 
L 561.583621 41.581516 
L 486.590517 41.581516 
z
" clip-path="url(#p8408b2fc88)" style="fill: #addc30"/>
   </g>
   <g id="patch_44">
    <path d="M 486.590517 41.581516 
L 561.583621 41.581516 
L 561.583621 39.7053 
L 486.590517 39.7053 
z
" clip-path="url(#p8408b2fc88)" style="fill: #440154"/>
   </g>
   <g id="patch_45">
    <path d="M 486.590517 39.7053 
L 561.583621 39.7053 
L 561.583621 39.7053 
L 486.590517 39.7053 
z
" clip-path="url(#p8408b2fc88)" style="fill: #28ae80"/>
   </g>
   <g id="patch_46">
    <path d="M 486.590517 39.7053 
L 561.583621 39.7053 
L 561.583621 36.24 
L 486.590517 36.24 
z
" clip-path="url(#p8408b2fc88)" style="fill: #3b528b"/>
   </g>
   <g id="patch_47">
    <path d="M 486.590517 36.24 
L 561.583621 36.24 
L 561.583621 36.24 
L 486.590517 36.24 
z
" clip-path="url(#p8408b2fc88)" style="fill: #2c728e"/>
   </g>
   <g id="patch_48">
    <path d="M 580.331897 510.28 
L 655.325 510.28 
L 655.325 457.139076 
L 580.331897 457.139076 
z
" clip-path="url(#p8408b2fc88)" style="fill: #440154"/>
   </g>
   <g id="patch_49">
    <path d="M 580.331897 457.139076 
L 655.325 457.139076 
L 655.325 444.136894 
L 580.331897 444.136894 
z
" clip-path="url(#p8408b2fc88)" style="fill: #472d7b"/>
   </g>
   <g id="patch_50">
    <path d="M 580.331897 444.136894 
L 655.325 444.136894 
L 655.325 443.7964 
L 580.331897 443.7964 
z
" clip-path="url(#p8408b2fc88)" style="fill: #5ec962"/>
   </g>
   <g id="patch_51">
    <path d="M 580.331897 443.7964 
L 655.325 443.7964 
L 655.325 443.7964 
L 580.331897 443.7964 
z
" clip-path="url(#p8408b2fc88)" style="fill: #28ae80"/>
   </g>
   <g id="patch_52">
    <path d="M 580.331897 443.7964 
L 655.325 443.7964 
L 655.325 443.7964 
L 580.331897 443.7964 
z
" clip-path="url(#p8408b2fc88)" style="fill: #3b528b"/>
   </g>
   <g id="patch_53">
    <path d="M 580.331897 443.7964 
L 655.325 443.7964 
L 655.325 143.400609 
L 580.331897 143.400609 
z
" clip-path="url(#p8408b2fc88)" style="fill: #21918c"/>
   </g>
   <g id="patch_54">
    <path d="M 580.331897 143.400609 
L 655.325 143.400609 
L 655.325 141.618867 
L 580.331897 141.618867 
z
" clip-path="url(#p8408b2fc88)" style="fill: #fde725"/>
   </g>
   <g id="patch_55">
    <path d="M 580.331897 141.618867 
L 655.325 141.618867 
L 655.325 43.397085 
L 580.331897 43.397085 
z
" clip-path="url(#p8408b2fc88)" style="fill: #addc30"/>
   </g>
   <g id="patch_56">
    <path d="M 580.331897 43.397085 
L 655.325 43.397085 
L 655.325 36.24 
L 580.331897 36.24 
z
" clip-path="url(#p8408b2fc88)" style="fill: #2c728e"/>
   </g>
   <g id="matplotlib.axis_1">
    <g id="xtick_1">
     <g id="line2d_1">
      <defs>
       <path id="mbb6709c6ca" d="M 0 0 
L 0 3.5 
" style="stroke: #000000; stroke-width: 0.8"/>
      </defs>
      <g>
       <use xlink:href="#mbb6709c6ca" x="149.121552" y="510.28" style="stroke: #000000; stroke-width: 0.8"/>
      </g>
     </g>
     <g id="text_1">
      <!-- 1 -->
      <g transform="translate(142.631802 532.780813) scale(0.204 -0.204)">
       <defs>
        <path id="DejaVuSans-31" d="M 794 531 
L 1825 531 
L 1825 4091 
L 703 3866 
L 703 4441 
L 1819 4666 
L 2450 4666 
L 2450 531 
L 3481 531 
L 3481 0 
L 794 0 
L 794 531 
z
" transform="scale(0.015625)"/>
       </defs>
       <use xlink:href="#DejaVuSans-31"/>
      </g>
     </g>
    </g>
    <g id="xtick_2">
     <g id="line2d_2">
      <g>
       <use xlink:href="#mbb6709c6ca" x="242.862931" y="510.28" style="stroke: #000000; stroke-width: 0.8"/>
      </g>
     </g>
     <g id="text_2">
      <!-- 2 -->
      <g transform="translate(236.373181 532.780813) scale(0.204 -0.204)">
       <defs>
        <path id="DejaVuSans-32" d="M 1228 531 
L 3431 531 
L 3431 0 
L 469 0 
L 469 531 
Q 828 903 1448 1529 
Q 2069 2156 2228 2338 
Q 2531 2678 2651 2914 
Q 2772 3150 2772 3378 
Q 2772 3750 2511 3984 
Q 2250 4219 1831 4219 
Q 1534 4219 1204 4116 
Q 875 4013 500 3803 
L 500 4441 
Q 881 4594 1212 4672 
Q 1544 4750 1819 4750 
Q 2544 4750 2975 4387 
Q 3406 4025 3406 3419 
Q 3406 3131 3298 2873 
Q 3191 2616 2906 2266 
Q 2828 2175 2409 1742 
Q 1991 1309 1228 531 
z
" transform="scale(0.015625)"/>
       </defs>
       <use xlink:href="#DejaVuSans-32"/>
      </g>
     </g>
    </g>
    <g id="xtick_3">
     <g id="line2d_3">
      <g>
       <use xlink:href="#mbb6709c6ca" x="336.60431" y="510.28" style="stroke: #000000; stroke-width: 0.8"/>
      </g>
     </g>
     <g id="text_3">
      <!-- 3 -->
      <g transform="translate(330.11456 532.780813) scale(0.204 -0.204)">
       <defs>
        <path id="DejaVuSans-33" d="M 2597 2516 
Q 3050 2419 3304 2112 
Q 3559 1806 3559 1356 
Q 3559 666 3084 287 
Q 2609 -91 1734 -91 
Q 1441 -91 1130 -33 
Q 819 25 488 141 
L 488 750 
Q 750 597 1062 519 
Q 1375 441 1716 441 
Q 2309 441 2620 675 
Q 2931 909 2931 1356 
Q 2931 1769 2642 2001 
Q 2353 2234 1838 2234 
L 1294 2234 
L 1294 2753 
L 1863 2753 
Q 2328 2753 2575 2939 
Q 2822 3125 2822 3475 
Q 2822 3834 2567 4026 
Q 2313 4219 1838 4219 
Q 1578 4219 1281 4162 
Q 984 4106 628 3988 
L 628 4550 
Q 988 4650 1302 4700 
Q 1616 4750 1894 4750 
Q 2613 4750 3031 4423 
Q 3450 4097 3450 3541 
Q 3450 3153 3228 2886 
Q 3006 2619 2597 2516 
z
" transform="scale(0.015625)"/>
       </defs>
       <use xlink:href="#DejaVuSans-33"/>
      </g>
     </g>
    </g>
    <g id="xtick_4">
     <g id="line2d_4">
      <g>
       <use xlink:href="#mbb6709c6ca" x="430.34569" y="510.28" style="stroke: #000000; stroke-width: 0.8"/>
      </g>
     </g>
     <g id="text_4">
      <!-- 4 -->
      <g transform="translate(423.85594 532.780813) scale(0.204 -0.204)">
       <defs>
        <path id="DejaVuSans-34" d="M 2419 4116 
L 825 1625 
L 2419 1625 
L 2419 4116 
z
M 2253 4666 
L 3047 4666 
L 3047 1625 
L 3713 1625 
L 3713 1100 
L 3047 1100 
L 3047 0 
L 2419 0 
L 2419 1100 
L 313 1100 
L 313 1709 
L 2253 4666 
z
" transform="scale(0.015625)"/>
       </defs>
       <use xlink:href="#DejaVuSans-34"/>
      </g>
     </g>
    </g>
    <g id="xtick_5">
     <g id="line2d_5">
      <g>
       <use xlink:href="#mbb6709c6ca" x="524.087069" y="510.28" style="stroke: #000000; stroke-width: 0.8"/>
      </g>
     </g>
     <g id="text_5">
      <!-- 5 -->
      <g transform="translate(517.597319 532.780813) scale(0.204 -0.204)">
       <defs>
        <path id="DejaVuSans-35" d="M 691 4666 
L 3169 4666 
L 3169 4134 
L 1269 4134 
L 1269 2991 
Q 1406 3038 1543 3061 
Q 1681 3084 1819 3084 
Q 2600 3084 3056 2656 
Q 3513 2228 3513 1497 
Q 3513 744 3044 326 
Q 2575 -91 1722 -91 
Q 1428 -91 1123 -41 
Q 819 9 494 109 
L 494 744 
Q 775 591 1075 516 
Q 1375 441 1709 441 
Q 2250 441 2565 725 
Q 2881 1009 2881 1497 
Q 2881 1984 2565 2268 
Q 2250 2553 1709 2553 
Q 1456 2553 1204 2497 
Q 953 2441 691 2322 
L 691 4666 
z
" transform="scale(0.015625)"/>
       </defs>
       <use xlink:href="#DejaVuSans-35"/>
      </g>
     </g>
    </g>
    <g id="xtick_6">
     <g id="line2d_6">
      <g>
       <use xlink:href="#mbb6709c6ca" x="617.828448" y="510.28" style="stroke: #000000; stroke-width: 0.8"/>
      </g>
     </g>
     <g id="text_6">
      <!-- 6 -->
      <g transform="translate(611.338698 532.780813) scale(0.204 -0.204)">
       <defs>
        <path id="DejaVuSans-36" d="M 2113 2584 
Q 1688 2584 1439 2293 
Q 1191 2003 1191 1497 
Q 1191 994 1439 701 
Q 1688 409 2113 409 
Q 2538 409 2786 701 
Q 3034 994 3034 1497 
Q 3034 2003 2786 2293 
Q 2538 2584 2113 2584 
z
M 3366 4563 
L 3366 3988 
Q 3128 4100 2886 4159 
Q 2644 4219 2406 4219 
Q 1781 4219 1451 3797 
Q 1122 3375 1075 2522 
Q 1259 2794 1537 2939 
Q 1816 3084 2150 3084 
Q 2853 3084 3261 2657 
Q 3669 2231 3669 1497 
Q 3669 778 3244 343 
Q 2819 -91 2113 -91 
Q 1303 -91 875 529 
Q 447 1150 447 2328 
Q 447 3434 972 4092 
Q 1497 4750 2381 4750 
Q 2619 4750 2861 4703 
Q 3103 4656 3366 4563 
z
" transform="scale(0.015625)"/>
       </defs>
       <use xlink:href="#DejaVuSans-36"/>
      </g>
     </g>
    </g>
    <g id="text_7">
     <!-- Round -->
     <g transform="translate(345.822656 559.107656) scale(0.238 -0.238)">
      <defs>
       <path id="DejaVuSans-52" d="M 2841 2188 
Q 3044 2119 3236 1894 
Q 3428 1669 3622 1275 
L 4263 0 
L 3584 0 
L 2988 1197 
Q 2756 1666 2539 1819 
Q 2322 1972 1947 1972 
L 1259 1972 
L 1259 0 
L 628 0 
L 628 4666 
L 2053 4666 
Q 2853 4666 3247 4331 
Q 3641 3997 3641 3322 
Q 3641 2881 3436 2590 
Q 3231 2300 2841 2188 
z
M 1259 4147 
L 1259 2491 
L 2053 2491 
Q 2509 2491 2742 2702 
Q 2975 2913 2975 3322 
Q 2975 3731 2742 3939 
Q 2509 4147 2053 4147 
L 1259 4147 
z
" transform="scale(0.015625)"/>
       <path id="DejaVuSans-6f" d="M 1959 3097 
Q 1497 3097 1228 2736 
Q 959 2375 959 1747 
Q 959 1119 1226 758 
Q 1494 397 1959 397 
Q 2419 397 2687 759 
Q 2956 1122 2956 1747 
Q 2956 2369 2687 2733 
Q 2419 3097 1959 3097 
z
M 1959 3584 
Q 2709 3584 3137 3096 
Q 3566 2609 3566 1747 
Q 3566 888 3137 398 
Q 2709 -91 1959 -91 
Q 1206 -91 779 398 
Q 353 888 353 1747 
Q 353 2609 779 3096 
Q 1206 3584 1959 3584 
z
" transform="scale(0.015625)"/>
       <path id="DejaVuSans-75" d="M 544 1381 
L 544 3500 
L 1119 3500 
L 1119 1403 
Q 1119 906 1312 657 
Q 1506 409 1894 409 
Q 2359 409 2629 706 
Q 2900 1003 2900 1516 
L 2900 3500 
L 3475 3500 
L 3475 0 
L 2900 0 
L 2900 538 
Q 2691 219 2414 64 
Q 2138 -91 1772 -91 
Q 1169 -91 856 284 
Q 544 659 544 1381 
z
M 1991 3584 
L 1991 3584 
z
" transform="scale(0.015625)"/>
       <path id="DejaVuSans-6e" d="M 3513 2113 
L 3513 0 
L 2938 0 
L 2938 2094 
Q 2938 2591 2744 2837 
Q 2550 3084 2163 3084 
Q 1697 3084 1428 2787 
Q 1159 2491 1159 1978 
L 1159 0 
L 581 0 
L 581 3500 
L 1159 3500 
L 1159 2956 
Q 1366 3272 1645 3428 
Q 1925 3584 2291 3584 
Q 2894 3584 3203 3211 
Q 3513 2838 3513 2113 
z
" transform="scale(0.015625)"/>
       <path id="DejaVuSans-64" d="M 2906 2969 
L 2906 4863 
L 3481 4863 
L 3481 0 
L 2906 0 
L 2906 525 
Q 2725 213 2448 61 
Q 2172 -91 1784 -91 
Q 1150 -91 751 415 
Q 353 922 353 1747 
Q 353 2572 751 3078 
Q 1150 3584 1784 3584 
Q 2172 3584 2448 3432 
Q 2725 3281 2906 2969 
z
M 947 1747 
Q 947 1113 1208 752 
Q 1469 391 1925 391 
Q 2381 391 2643 752 
Q 2906 1113 2906 1747 
Q 2906 2381 2643 2742 
Q 2381 3103 1925 3103 
Q 1469 3103 1208 2742 
Q 947 2381 947 1747 
z
" transform="scale(0.015625)"/>
      </defs>
      <use xlink:href="#DejaVuSans-52"/>
      <use xlink:href="#DejaVuSans-6f" transform="translate(64.982422 0)"/>
      <use xlink:href="#DejaVuSans-75" transform="translate(126.164062 0)"/>
      <use xlink:href="#DejaVuSans-6e" transform="translate(189.542969 0)"/>
      <use xlink:href="#DejaVuSans-64" transform="translate(252.921875 0)"/>
     </g>
    </g>
   </g>
   <g id="matplotlib.axis_2">
    <g id="ytick_1">
     <g id="line2d_7">
      <defs>
       <path id="m3a1d67691d" d="M 0 0 
L -3.5 0 
" style="stroke: #000000; stroke-width: 0.8"/>
      </defs>
      <g>
       <use xlink:href="#m3a1d67691d" x="84.44" y="510.28" style="stroke: #000000; stroke-width: 0.8"/>
      </g>
     </g>
     <g id="text_8">
      <!-- 0 -->
      <g transform="translate(64.4605 518.030406) scale(0.204 -0.204)">
       <defs>
        <path id="DejaVuSans-30" d="M 2034 4250 
Q 1547 4250 1301 3770 
Q 1056 3291 1056 2328 
Q 1056 1369 1301 889 
Q 1547 409 2034 409 
Q 2525 409 2770 889 
Q 3016 1369 3016 2328 
Q 3016 3291 2770 3770 
Q 2525 4250 2034 4250 
z
M 2034 4750 
Q 2819 4750 3233 4129 
Q 3647 3509 3647 2328 
Q 3647 1150 3233 529 
Q 2819 -91 2034 -91 
Q 1250 -91 836 529 
Q 422 1150 422 2328 
Q 422 3509 836 4129 
Q 1250 4750 2034 4750 
z
" transform="scale(0.015625)"/>
       </defs>
       <use xlink:href="#DejaVuSans-30"/>
      </g>
     </g>
    </g>
    <g id="ytick_2">
     <g id="line2d_8">
      <g>
       <use xlink:href="#m3a1d67691d" x="84.44" y="415.472" style="stroke: #000000; stroke-width: 0.8"/>
      </g>
     </g>
     <g id="text_9">
      <!-- 100 -->
      <g transform="translate(38.5015 423.222406) scale(0.204 -0.204)">
       <use xlink:href="#DejaVuSans-31"/>
       <use xlink:href="#DejaVuSans-30" transform="translate(63.623047 0)"/>
       <use xlink:href="#DejaVuSans-30" transform="translate(127.246094 0)"/>
      </g>
     </g>
    </g>
    <g id="ytick_3">
     <g id="line2d_9">
      <g>
       <use xlink:href="#m3a1d67691d" x="84.44" y="320.664" style="stroke: #000000; stroke-width: 0.8"/>
      </g>
     </g>
     <g id="text_10">
      <!-- 200 -->
      <g transform="translate(38.5015 328.414406) scale(0.204 -0.204)">
       <use xlink:href="#DejaVuSans-32"/>
       <use xlink:href="#DejaVuSans-30" transform="translate(63.623047 0)"/>
       <use xlink:href="#DejaVuSans-30" transform="translate(127.246094 0)"/>
      </g>
     </g>
    </g>
    <g id="ytick_4">
     <g id="line2d_10">
      <g>
       <use xlink:href="#m3a1d67691d" x="84.44" y="225.856" style="stroke: #000000; stroke-width: 0.8"/>
      </g>
     </g>
     <g id="text_11">
      <!-- 300 -->
      <g transform="translate(38.5015 233.606406) scale(0.204 -0.204)">
       <use xlink:href="#DejaVuSans-33"/>
       <use xlink:href="#DejaVuSans-30" transform="translate(63.623047 0)"/>
       <use xlink:href="#DejaVuSans-30" transform="translate(127.246094 0)"/>
      </g>
     </g>
    </g>
    <g id="ytick_5">
     <g id="line2d_11">
      <g>
       <use xlink:href="#m3a1d67691d" x="84.44" y="131.048" style="stroke: #000000; stroke-width: 0.8"/>
      </g>
     </g>
     <g id="text_12">
      <!-- 400 -->
      <g transform="translate(38.5015 138.798406) scale(0.204 -0.204)">
       <use xlink:href="#DejaVuSans-34"/>
       <use xlink:href="#DejaVuSans-30" transform="translate(63.623047 0)"/>
       <use xlink:href="#DejaVuSans-30" transform="translate(127.246094 0)"/>
      </g>
     </g>
    </g>
    <g id="ytick_6">
     <g id="line2d_12">
      <g>
       <use xlink:href="#m3a1d67691d" x="84.44" y="36.24" style="stroke: #000000; stroke-width: 0.8"/>
      </g>
     </g>
     <g id="text_13">
      <!-- 500 -->
      <g transform="translate(38.5015 43.990406) scale(0.204 -0.204)">
       <use xlink:href="#DejaVuSans-35"/>
       <use xlink:href="#DejaVuSans-30" transform="translate(63.623047 0)"/>
       <use xlink:href="#DejaVuSans-30" transform="translate(127.246094 0)"/>
      </g>
     </g>
    </g>
    <g id="text_14">
     <!-- Times of evaluation -->
     <g transform="translate(29.551844 390.201672) rotate(-90) scale(0.238 -0.238)">
      <defs>
       <path id="DejaVuSans-54" d="M -19 4666 
L 3928 4666 
L 3928 4134 
L 2272 4134 
L 2272 0 
L 1638 0 
L 1638 4134 
L -19 4134 
L -19 4666 
z
" transform="scale(0.015625)"/>
       <path id="DejaVuSans-69" d="M 603 3500 
L 1178 3500 
L 1178 0 
L 603 0 
L 603 3500 
z
M 603 4863 
L 1178 4863 
L 1178 4134 
L 603 4134 
L 603 4863 
z
" transform="scale(0.015625)"/>
       <path id="DejaVuSans-6d" d="M 3328 2828 
Q 3544 3216 3844 3400 
Q 4144 3584 4550 3584 
Q 5097 3584 5394 3201 
Q 5691 2819 5691 2113 
L 5691 0 
L 5113 0 
L 5113 2094 
Q 5113 2597 4934 2840 
Q 4756 3084 4391 3084 
Q 3944 3084 3684 2787 
Q 3425 2491 3425 1978 
L 3425 0 
L 2847 0 
L 2847 2094 
Q 2847 2600 2669 2842 
Q 2491 3084 2119 3084 
Q 1678 3084 1418 2786 
Q 1159 2488 1159 1978 
L 1159 0 
L 581 0 
L 581 3500 
L 1159 3500 
L 1159 2956 
Q 1356 3278 1631 3431 
Q 1906 3584 2284 3584 
Q 2666 3584 2933 3390 
Q 3200 3197 3328 2828 
z
" transform="scale(0.015625)"/>
       <path id="DejaVuSans-65" d="M 3597 1894 
L 3597 1613 
L 953 1613 
Q 991 1019 1311 708 
Q 1631 397 2203 397 
Q 2534 397 2845 478 
Q 3156 559 3463 722 
L 3463 178 
Q 3153 47 2828 -22 
Q 2503 -91 2169 -91 
Q 1331 -91 842 396 
Q 353 884 353 1716 
Q 353 2575 817 3079 
Q 1281 3584 2069 3584 
Q 2775 3584 3186 3129 
Q 3597 2675 3597 1894 
z
M 3022 2063 
Q 3016 2534 2758 2815 
Q 2500 3097 2075 3097 
Q 1594 3097 1305 2825 
Q 1016 2553 972 2059 
L 3022 2063 
z
" transform="scale(0.015625)"/>
       <path id="DejaVuSans-73" d="M 2834 3397 
L 2834 2853 
Q 2591 2978 2328 3040 
Q 2066 3103 1784 3103 
Q 1356 3103 1142 2972 
Q 928 2841 928 2578 
Q 928 2378 1081 2264 
Q 1234 2150 1697 2047 
L 1894 2003 
Q 2506 1872 2764 1633 
Q 3022 1394 3022 966 
Q 3022 478 2636 193 
Q 2250 -91 1575 -91 
Q 1294 -91 989 -36 
Q 684 19 347 128 
L 347 722 
Q 666 556 975 473 
Q 1284 391 1588 391 
Q 1994 391 2212 530 
Q 2431 669 2431 922 
Q 2431 1156 2273 1281 
Q 2116 1406 1581 1522 
L 1381 1569 
Q 847 1681 609 1914 
Q 372 2147 372 2553 
Q 372 3047 722 3315 
Q 1072 3584 1716 3584 
Q 2034 3584 2315 3537 
Q 2597 3491 2834 3397 
z
" transform="scale(0.015625)"/>
       <path id="DejaVuSans-20" transform="scale(0.015625)"/>
       <path id="DejaVuSans-66" d="M 2375 4863 
L 2375 4384 
L 1825 4384 
Q 1516 4384 1395 4259 
Q 1275 4134 1275 3809 
L 1275 3500 
L 2222 3500 
L 2222 3053 
L 1275 3053 
L 1275 0 
L 697 0 
L 697 3053 
L 147 3053 
L 147 3500 
L 697 3500 
L 697 3744 
Q 697 4328 969 4595 
Q 1241 4863 1831 4863 
L 2375 4863 
z
" transform="scale(0.015625)"/>
       <path id="DejaVuSans-76" d="M 191 3500 
L 800 3500 
L 1894 563 
L 2988 3500 
L 3597 3500 
L 2284 0 
L 1503 0 
L 191 3500 
z
" transform="scale(0.015625)"/>
       <path id="DejaVuSans-61" d="M 2194 1759 
Q 1497 1759 1228 1600 
Q 959 1441 959 1056 
Q 959 750 1161 570 
Q 1363 391 1709 391 
Q 2188 391 2477 730 
Q 2766 1069 2766 1631 
L 2766 1759 
L 2194 1759 
z
M 3341 1997 
L 3341 0 
L 2766 0 
L 2766 531 
Q 2569 213 2275 61 
Q 1981 -91 1556 -91 
Q 1019 -91 701 211 
Q 384 513 384 1019 
Q 384 1609 779 1909 
Q 1175 2209 1959 2209 
L 2766 2209 
L 2766 2266 
Q 2766 2663 2505 2880 
Q 2244 3097 1772 3097 
Q 1472 3097 1187 3025 
Q 903 2953 641 2809 
L 641 3341 
Q 956 3463 1253 3523 
Q 1550 3584 1831 3584 
Q 2591 3584 2966 3190 
Q 3341 2797 3341 1997 
z
" transform="scale(0.015625)"/>
       <path id="DejaVuSans-6c" d="M 603 4863 
L 1178 4863 
L 1178 0 
L 603 0 
L 603 4863 
z
" transform="scale(0.015625)"/>
       <path id="DejaVuSans-74" d="M 1172 4494 
L 1172 3500 
L 2356 3500 
L 2356 3053 
L 1172 3053 
L 1172 1153 
Q 1172 725 1289 603 
Q 1406 481 1766 481 
L 2356 481 
L 2356 0 
L 1766 0 
Q 1100 0 847 248 
Q 594 497 594 1153 
L 594 3053 
L 172 3053 
L 172 3500 
L 594 3500 
L 594 4494 
L 1172 4494 
z
" transform="scale(0.015625)"/>
      </defs>
      <use xlink:href="#DejaVuSans-54"/>
      <use xlink:href="#DejaVuSans-69" transform="translate(57.958984 0)"/>
      <use xlink:href="#DejaVuSans-6d" transform="translate(85.742188 0)"/>
      <use xlink:href="#DejaVuSans-65" transform="translate(183.154297 0)"/>
      <use xlink:href="#DejaVuSans-73" transform="translate(244.677734 0)"/>
      <use xlink:href="#DejaVuSans-20" transform="translate(296.777344 0)"/>
      <use xlink:href="#DejaVuSans-6f" transform="translate(328.564453 0)"/>
      <use xlink:href="#DejaVuSans-66" transform="translate(389.746094 0)"/>
      <use xlink:href="#DejaVuSans-20" transform="translate(424.951172 0)"/>
      <use xlink:href="#DejaVuSans-65" transform="translate(456.738281 0)"/>
      <use xlink:href="#DejaVuSans-76" transform="translate(518.261719 0)"/>
      <use xlink:href="#DejaVuSans-61" transform="translate(577.441406 0)"/>
      <use xlink:href="#DejaVuSans-6c" transform="translate(638.720703 0)"/>
      <use xlink:href="#DejaVuSans-75" transform="translate(666.503906 0)"/>
      <use xlink:href="#DejaVuSans-61" transform="translate(729.882812 0)"/>
      <use xlink:href="#DejaVuSans-74" transform="translate(791.162109 0)"/>
      <use xlink:href="#DejaVuSans-69" transform="translate(830.371094 0)"/>
      <use xlink:href="#DejaVuSans-6f" transform="translate(858.154297 0)"/>
      <use xlink:href="#DejaVuSans-6e" transform="translate(919.335938 0)"/>
     </g>
    </g>
   </g>
   <g id="patch_57">
    <path d="M 84.44 510.28 
L 84.44 36.24 
" style="fill: none; stroke: #000000; stroke-width: 0.8; stroke-linejoin: miter; stroke-linecap: square"/>
   </g>
   <g id="patch_58">
    <path d="M 682.51 510.28 
L 682.51 36.24 
" style="fill: none; stroke: #000000; stroke-width: 0.8; stroke-linejoin: miter; stroke-linecap: square"/>
   </g>
   <g id="patch_59">
    <path d="M 84.44 510.28 
L 682.51 510.28 
" style="fill: none; stroke: #000000; stroke-width: 0.8; stroke-linejoin: miter; stroke-linecap: square"/>
   </g>
   <g id="patch_60">
    <path d="M 84.44 36.24 
L 682.51 36.24 
" style="fill: none; stroke: #000000; stroke-width: 0.8; stroke-linejoin: miter; stroke-linecap: square"/>
   </g>
   <g id="text_15">
    <!-- Function activation time for each Round -->
    <g transform="translate(128.415234 30.24) scale(0.255 -0.255)">
     <defs>
      <path id="DejaVuSans-46" d="M 628 4666 
L 3309 4666 
L 3309 4134 
L 1259 4134 
L 1259 2759 
L 3109 2759 
L 3109 2228 
L 1259 2228 
L 1259 0 
L 628 0 
L 628 4666 
z
" transform="scale(0.015625)"/>
      <path id="DejaVuSans-63" d="M 3122 3366 
L 3122 2828 
Q 2878 2963 2633 3030 
Q 2388 3097 2138 3097 
Q 1578 3097 1268 2742 
Q 959 2388 959 1747 
Q 959 1106 1268 751 
Q 1578 397 2138 397 
Q 2388 397 2633 464 
Q 2878 531 3122 666 
L 3122 134 
Q 2881 22 2623 -34 
Q 2366 -91 2075 -91 
Q 1284 -91 818 406 
Q 353 903 353 1747 
Q 353 2603 823 3093 
Q 1294 3584 2113 3584 
Q 2378 3584 2631 3529 
Q 2884 3475 3122 3366 
z
" transform="scale(0.015625)"/>
      <path id="DejaVuSans-72" d="M 2631 2963 
Q 2534 3019 2420 3045 
Q 2306 3072 2169 3072 
Q 1681 3072 1420 2755 
Q 1159 2438 1159 1844 
L 1159 0 
L 581 0 
L 581 3500 
L 1159 3500 
L 1159 2956 
Q 1341 3275 1631 3429 
Q 1922 3584 2338 3584 
Q 2397 3584 2469 3576 
Q 2541 3569 2628 3553 
L 2631 2963 
z
" transform="scale(0.015625)"/>
      <path id="DejaVuSans-68" d="M 3513 2113 
L 3513 0 
L 2938 0 
L 2938 2094 
Q 2938 2591 2744 2837 
Q 2550 3084 2163 3084 
Q 1697 3084 1428 2787 
Q 1159 2491 1159 1978 
L 1159 0 
L 581 0 
L 581 4863 
L 1159 4863 
L 1159 2956 
Q 1366 3272 1645 3428 
Q 1925 3584 2291 3584 
Q 2894 3584 3203 3211 
Q 3513 2838 3513 2113 
z
" transform="scale(0.015625)"/>
     </defs>
     <use xlink:href="#DejaVuSans-46"/>
     <use xlink:href="#DejaVuSans-75" transform="translate(52.019531 0)"/>
     <use xlink:href="#DejaVuSans-6e" transform="translate(115.398438 0)"/>
     <use xlink:href="#DejaVuSans-63" transform="translate(178.777344 0)"/>
     <use xlink:href="#DejaVuSans-74" transform="translate(233.757812 0)"/>
     <use xlink:href="#DejaVuSans-69" transform="translate(272.966797 0)"/>
     <use xlink:href="#DejaVuSans-6f" transform="translate(300.75 0)"/>
     <use xlink:href="#DejaVuSans-6e" transform="translate(361.931641 0)"/>
     <use xlink:href="#DejaVuSans-20" transform="translate(425.310547 0)"/>
     <use xlink:href="#DejaVuSans-61" transform="translate(457.097656 0)"/>
     <use xlink:href="#DejaVuSans-63" transform="translate(518.376953 0)"/>
     <use xlink:href="#DejaVuSans-74" transform="translate(573.357422 0)"/>
     <use xlink:href="#DejaVuSans-69" transform="translate(612.566406 0)"/>
     <use xlink:href="#DejaVuSans-76" transform="translate(640.349609 0)"/>
     <use xlink:href="#DejaVuSans-61" transform="translate(699.529297 0)"/>
     <use xlink:href="#DejaVuSans-74" transform="translate(760.808594 0)"/>
     <use xlink:href="#DejaVuSans-69" transform="translate(800.017578 0)"/>
     <use xlink:href="#DejaVuSans-6f" transform="translate(827.800781 0)"/>
     <use xlink:href="#DejaVuSans-6e" transform="translate(888.982422 0)"/>
     <use xlink:href="#DejaVuSans-20" transform="translate(952.361328 0)"/>
     <use xlink:href="#DejaVuSans-74" transform="translate(984.148438 0)"/>
     <use xlink:href="#DejaVuSans-69" transform="translate(1023.357422 0)"/>
     <use xlink:href="#DejaVuSans-6d" transform="translate(1051.140625 0)"/>
     <use xlink:href="#DejaVuSans-65" transform="translate(1148.552734 0)"/>
     <use xlink:href="#DejaVuSans-20" transform="translate(1210.076172 0)"/>
     <use xlink:href="#DejaVuSans-66" transform="translate(1241.863281 0)"/>
     <use xlink:href="#DejaVuSans-6f" transform="translate(1277.068359 0)"/>
     <use xlink:href="#DejaVuSans-72" transform="translate(1338.25 0)"/>
     <use xlink:href="#DejaVuSans-20" transform="translate(1379.363281 0)"/>
     <use xlink:href="#DejaVuSans-65" transform="translate(1411.150391 0)"/>
     <use xlink:href="#DejaVuSans-61" transform="translate(1472.673828 0)"/>
     <use xlink:href="#DejaVuSans-63" transform="translate(1533.953125 0)"/>
     <use xlink:href="#DejaVuSans-68" transform="translate(1588.933594 0)"/>
     <use xlink:href="#DejaVuSans-20" transform="translate(1652.3125 0)"/>
     <use xlink:href="#DejaVuSans-52" transform="translate(1684.099609 0)"/>
     <use xlink:href="#DejaVuSans-6f" transform="translate(1749.082031 0)"/>
     <use xlink:href="#DejaVuSans-75" transform="translate(1810.263672 0)"/>
     <use xlink:href="#DejaVuSans-6e" transform="translate(1873.642578 0)"/>
     <use xlink:href="#DejaVuSans-64" transform="translate(1937.021484 0)"/>
    </g>
   </g>
   <g id="legend_1">
    <g id="patch_61">
     <path d="M 721.9335 243.258375 
L 847.302125 243.258375 
Q 850.022125 243.258375 850.022125 240.538375 
L 850.022125 45.76 
Q 850.022125 43.04 847.302125 43.04 
L 721.9335 43.04 
Q 719.2135 43.04 719.2135 45.76 
L 719.2135 240.538375 
Q 719.2135 243.258375 721.9335 243.258375 
z
" style="fill: #ffffff; opacity: 0.8; stroke: #cccccc; stroke-linejoin: miter"/>
    </g>
    <g id="text_16">
     <!-- Function -->
     <g transform="translate(763.352969 56.078437) scale(0.1 -0.1)">
      <use xlink:href="#DejaVuSans-46"/>
      <use xlink:href="#DejaVuSans-75" transform="translate(52.019531 0)"/>
      <use xlink:href="#DejaVuSans-6e" transform="translate(115.398438 0)"/>
      <use xlink:href="#DejaVuSans-63" transform="translate(178.777344 0)"/>
      <use xlink:href="#DejaVuSans-74" transform="translate(233.757812 0)"/>
      <use xlink:href="#DejaVuSans-69" transform="translate(272.966797 0)"/>
      <use xlink:href="#DejaVuSans-6f" transform="translate(300.75 0)"/>
      <use xlink:href="#DejaVuSans-6e" transform="translate(361.931641 0)"/>
     </g>
    </g>
    <g id="patch_62">
     <path d="M 724.6535 75.292 
L 751.8535 75.292 
L 751.8535 65.772 
L 724.6535 65.772 
z
" style="fill: #28ae80"/>
    </g>
    <g id="text_17">
     <!-- HHO -->
     <g transform="translate(762.7335 75.292) scale(0.136 -0.136)">
      <defs>
       <path id="DejaVuSans-48" d="M 628 4666 
L 1259 4666 
L 1259 2753 
L 3553 2753 
L 3553 4666 
L 4184 4666 
L 4184 0 
L 3553 0 
L 3553 2222 
L 1259 2222 
L 1259 0 
L 628 0 
L 628 4666 
z
" transform="scale(0.015625)"/>
       <path id="DejaVuSans-4f" d="M 2522 4238 
Q 1834 4238 1429 3725 
Q 1025 3213 1025 2328 
Q 1025 1447 1429 934 
Q 1834 422 2522 422 
Q 3209 422 3611 934 
Q 4013 1447 4013 2328 
Q 4013 3213 3611 3725 
Q 3209 4238 2522 4238 
z
M 2522 4750 
Q 3503 4750 4090 4092 
Q 4678 3434 4678 2328 
Q 4678 1225 4090 567 
Q 3503 -91 2522 -91 
Q 1538 -91 948 565 
Q 359 1222 359 2328 
Q 359 3434 948 4092 
Q 1538 4750 2522 4750 
z
" transform="scale(0.015625)"/>
      </defs>
      <use xlink:href="#DejaVuSans-48"/>
      <use xlink:href="#DejaVuSans-48" transform="translate(75.195312 0)"/>
      <use xlink:href="#DejaVuSans-4f" transform="translate(150.390625 0)"/>
     </g>
    </g>
    <g id="patch_63">
     <path d="M 724.6535 95.25425 
L 751.8535 95.25425 
L 751.8535 85.73425 
L 724.6535 85.73425 
z
" style="fill: #addc30"/>
    </g>
    <g id="text_18">
     <!-- DE -->
     <g transform="translate(762.7335 95.25425) scale(0.136 -0.136)">
      <defs>
       <path id="DejaVuSans-44" d="M 1259 4147 
L 1259 519 
L 2022 519 
Q 2988 519 3436 956 
Q 3884 1394 3884 2338 
Q 3884 3275 3436 3711 
Q 2988 4147 2022 4147 
L 1259 4147 
z
M 628 4666 
L 1925 4666 
Q 3281 4666 3915 4102 
Q 4550 3538 4550 2338 
Q 4550 1131 3912 565 
Q 3275 0 1925 0 
L 628 0 
L 628 4666 
z
" transform="scale(0.015625)"/>
       <path id="DejaVuSans-45" d="M 628 4666 
L 3578 4666 
L 3578 4134 
L 1259 4134 
L 1259 2753 
L 3481 2753 
L 3481 2222 
L 1259 2222 
L 1259 531 
L 3634 531 
L 3634 0 
L 628 0 
L 628 4666 
z
" transform="scale(0.015625)"/>
      </defs>
      <use xlink:href="#DejaVuSans-44"/>
      <use xlink:href="#DejaVuSans-45" transform="translate(77.001953 0)"/>
     </g>
    </g>
    <g id="patch_64">
     <path d="M 724.6535 115.2165 
L 751.8535 115.2165 
L 751.8535 105.6965 
L 724.6535 105.6965 
z
" style="fill: #fde725"/>
    </g>
    <g id="text_19">
     <!-- GA -->
     <g transform="translate(762.7335 115.2165) scale(0.136 -0.136)">
      <defs>
       <path id="DejaVuSans-47" d="M 3809 666 
L 3809 1919 
L 2778 1919 
L 2778 2438 
L 4434 2438 
L 4434 434 
Q 4069 175 3628 42 
Q 3188 -91 2688 -91 
Q 1594 -91 976 548 
Q 359 1188 359 2328 
Q 359 3472 976 4111 
Q 1594 4750 2688 4750 
Q 3144 4750 3555 4637 
Q 3966 4525 4313 4306 
L 4313 3634 
Q 3963 3931 3569 4081 
Q 3175 4231 2741 4231 
Q 1884 4231 1454 3753 
Q 1025 3275 1025 2328 
Q 1025 1384 1454 906 
Q 1884 428 2741 428 
Q 3075 428 3337 486 
Q 3600 544 3809 666 
z
" transform="scale(0.015625)"/>
       <path id="DejaVuSans-41" d="M 2188 4044 
L 1331 1722 
L 3047 1722 
L 2188 4044 
z
M 1831 4666 
L 2547 4666 
L 4325 0 
L 3669 0 
L 3244 1197 
L 1141 1197 
L 716 0 
L 50 0 
L 1831 4666 
z
" transform="scale(0.015625)"/>
      </defs>
      <use xlink:href="#DejaVuSans-47"/>
      <use xlink:href="#DejaVuSans-41" transform="translate(77.490234 0)"/>
     </g>
    </g>
    <g id="patch_65">
     <path d="M 724.6535 135.17875 
L 751.8535 135.17875 
L 751.8535 125.65875 
L 724.6535 125.65875 
z
" style="fill: #2c728e"/>
    </g>
    <g id="text_20">
     <!-- ChOA -->
     <g transform="translate(762.7335 135.17875) scale(0.136 -0.136)">
      <defs>
       <path id="DejaVuSans-43" d="M 4122 4306 
L 4122 3641 
Q 3803 3938 3442 4084 
Q 3081 4231 2675 4231 
Q 1875 4231 1450 3742 
Q 1025 3253 1025 2328 
Q 1025 1406 1450 917 
Q 1875 428 2675 428 
Q 3081 428 3442 575 
Q 3803 722 4122 1019 
L 4122 359 
Q 3791 134 3420 21 
Q 3050 -91 2638 -91 
Q 1578 -91 968 557 
Q 359 1206 359 2328 
Q 359 3453 968 4101 
Q 1578 4750 2638 4750 
Q 3056 4750 3426 4639 
Q 3797 4528 4122 4306 
z
" transform="scale(0.015625)"/>
      </defs>
      <use xlink:href="#DejaVuSans-43"/>
      <use xlink:href="#DejaVuSans-68" transform="translate(69.824219 0)"/>
      <use xlink:href="#DejaVuSans-4f" transform="translate(133.203125 0)"/>
      <use xlink:href="#DejaVuSans-41" transform="translate(210.164062 0)"/>
     </g>
    </g>
    <g id="patch_66">
     <path d="M 724.6535 155.141 
L 751.8535 155.141 
L 751.8535 145.621 
L 724.6535 145.621 
z
" style="fill: #5ec962"/>
    </g>
    <g id="text_21">
     <!-- SCSO -->
     <g transform="translate(762.7335 155.141) scale(0.136 -0.136)">
      <defs>
       <path id="DejaVuSans-53" d="M 3425 4513 
L 3425 3897 
Q 3066 4069 2747 4153 
Q 2428 4238 2131 4238 
Q 1616 4238 1336 4038 
Q 1056 3838 1056 3469 
Q 1056 3159 1242 3001 
Q 1428 2844 1947 2747 
L 2328 2669 
Q 3034 2534 3370 2195 
Q 3706 1856 3706 1288 
Q 3706 609 3251 259 
Q 2797 -91 1919 -91 
Q 1588 -91 1214 -16 
Q 841 59 441 206 
L 441 856 
Q 825 641 1194 531 
Q 1563 422 1919 422 
Q 2459 422 2753 634 
Q 3047 847 3047 1241 
Q 3047 1584 2836 1778 
Q 2625 1972 2144 2069 
L 1759 2144 
Q 1053 2284 737 2584 
Q 422 2884 422 3419 
Q 422 4038 858 4394 
Q 1294 4750 2059 4750 
Q 2388 4750 2728 4690 
Q 3069 4631 3425 4513 
z
" transform="scale(0.015625)"/>
      </defs>
      <use xlink:href="#DejaVuSans-53"/>
      <use xlink:href="#DejaVuSans-43" transform="translate(63.476562 0)"/>
      <use xlink:href="#DejaVuSans-53" transform="translate(133.300781 0)"/>
      <use xlink:href="#DejaVuSans-4f" transform="translate(196.777344 0)"/>
     </g>
    </g>
    <g id="patch_67">
     <path d="M 724.6535 175.10325 
L 751.8535 175.10325 
L 751.8535 165.58325 
L 724.6535 165.58325 
z
" style="fill: #472d7b"/>
    </g>
    <g id="text_22">
     <!-- CHGWOSCA -->
     <g transform="translate(762.7335 175.10325) scale(0.136 -0.136)">
      <defs>
       <path id="DejaVuSans-57" d="M 213 4666 
L 850 4666 
L 1831 722 
L 2809 4666 
L 3519 4666 
L 4500 722 
L 5478 4666 
L 6119 4666 
L 4947 0 
L 4153 0 
L 3169 4050 
L 2175 0 
L 1381 0 
L 213 4666 
z
" transform="scale(0.015625)"/>
      </defs>
      <use xlink:href="#DejaVuSans-43"/>
      <use xlink:href="#DejaVuSans-48" transform="translate(69.824219 0)"/>
      <use xlink:href="#DejaVuSans-47" transform="translate(145.019531 0)"/>
      <use xlink:href="#DejaVuSans-57" transform="translate(222.509766 0)"/>
      <use xlink:href="#DejaVuSans-4f" transform="translate(321.386719 0)"/>
      <use xlink:href="#DejaVuSans-53" transform="translate(400.097656 0)"/>
      <use xlink:href="#DejaVuSans-43" transform="translate(463.574219 0)"/>
      <use xlink:href="#DejaVuSans-41" transform="translate(533.398438 0)"/>
     </g>
    </g>
    <g id="patch_68">
     <path d="M 724.6535 195.0655 
L 751.8535 195.0655 
L 751.8535 185.5455 
L 724.6535 185.5455 
z
" style="fill: #3b528b"/>
    </g>
    <g id="text_23">
     <!-- BES -->
     <g transform="translate(762.7335 195.0655) scale(0.136 -0.136)">
      <defs>
       <path id="DejaVuSans-42" d="M 1259 2228 
L 1259 519 
L 2272 519 
Q 2781 519 3026 730 
Q 3272 941 3272 1375 
Q 3272 1813 3026 2020 
Q 2781 2228 2272 2228 
L 1259 2228 
z
M 1259 4147 
L 1259 2741 
L 2194 2741 
Q 2656 2741 2882 2914 
Q 3109 3088 3109 3444 
Q 3109 3797 2882 3972 
Q 2656 4147 2194 4147 
L 1259 4147 
z
M 628 4666 
L 2241 4666 
Q 2963 4666 3353 4366 
Q 3744 4066 3744 3513 
Q 3744 3084 3544 2831 
Q 3344 2578 2956 2516 
Q 3422 2416 3680 2098 
Q 3938 1781 3938 1306 
Q 3938 681 3513 340 
Q 3088 0 2303 0 
L 628 0 
L 628 4666 
z
" transform="scale(0.015625)"/>
      </defs>
      <use xlink:href="#DejaVuSans-42"/>
      <use xlink:href="#DejaVuSans-45" transform="translate(68.603516 0)"/>
      <use xlink:href="#DejaVuSans-53" transform="translate(131.787109 0)"/>
     </g>
    </g>
    <g id="patch_69">
     <path d="M 724.6535 215.02775 
L 751.8535 215.02775 
L 751.8535 205.50775 
L 724.6535 205.50775 
z
" style="fill: #21918c"/>
    </g>
    <g id="text_24">
     <!-- PSO -->
     <g transform="translate(762.7335 215.02775) scale(0.136 -0.136)">
      <defs>
       <path id="DejaVuSans-50" d="M 1259 4147 
L 1259 2394 
L 2053 2394 
Q 2494 2394 2734 2622 
Q 2975 2850 2975 3272 
Q 2975 3691 2734 3919 
Q 2494 4147 2053 4147 
L 1259 4147 
z
M 628 4666 
L 2053 4666 
Q 2838 4666 3239 4311 
Q 3641 3956 3641 3272 
Q 3641 2581 3239 2228 
Q 2838 1875 2053 1875 
L 1259 1875 
L 1259 0 
L 628 0 
L 628 4666 
z
" transform="scale(0.015625)"/>
      </defs>
      <use xlink:href="#DejaVuSans-50"/>
      <use xlink:href="#DejaVuSans-53" transform="translate(60.302734 0)"/>
      <use xlink:href="#DejaVuSans-4f" transform="translate(123.779297 0)"/>
     </g>
    </g>
    <g id="patch_70">
     <path d="M 724.6535 234.99 
L 751.8535 234.99 
L 751.8535 225.47 
L 724.6535 225.47 
z
" style="fill: #440154"/>
    </g>
    <g id="text_25">
     <!-- GWO -->
     <g transform="translate(762.7335 234.99) scale(0.136 -0.136)">
      <use xlink:href="#DejaVuSans-47"/>
      <use xlink:href="#DejaVuSans-57" transform="translate(77.490234 0)"/>
      <use xlink:href="#DejaVuSans-4f" transform="translate(176.367188 0)"/>
     </g>
    </g>
   </g>
  </g>
 </g>
 <defs>
  <clipPath id="p8408b2fc88">
   <rect x="84.44" y="36.24" width="598.07" height="474.04"/>
  </clipPath>
 </defs>
</svg>
